<?xml version="1.0" encoding="UTF-8"?>
<mxfile host="ac.draw.io" modified="2023-05-19T12:11:53.633Z" agent="Mozilla/5.0 (X11; Linux x86_64) AppleWebKit/537.36 (KHTML, like Gecko) Chrome/113.0.0.0 Safari/537.36" etag="YPB-XJUALVHBP0AViEa6" version="21.3.2" type="embed">
  <diagram id="y1iyTtdUCG7ki8hs4XMf" name="Page-1">
    <mxGraphModel dx="2000" dy="1173" grid="1" gridSize="10" guides="1" tooltips="1" connect="1" arrows="1" fold="1" page="1" pageScale="1" pageWidth="827" pageHeight="1169" math="0" shadow="0">
      <root>
        <mxCell id="0" />
        <mxCell id="1" parent="0" />
        <mxCell id="eWLI98ym-naXwQQl-7Ps-1" value="&lt;h4&gt;PC (host)&lt;/h4&gt;" style="rounded=0;whiteSpace=wrap;html=1;absoluteArcSize=1;arcSize=14;strokeWidth=2;shadow=0;glass=0;verticalAlign=top;align=left;spacingLeft=10;" parent="1" vertex="1">
          <mxGeometry x="510" y="550" width="210" height="250" as="geometry" />
        </mxCell>
        <mxCell id="eWLI98ym-naXwQQl-7Ps-2" value="&lt;h4&gt;Terminal Program&lt;/h4&gt;" style="rounded=0;whiteSpace=wrap;html=1;absoluteArcSize=1;arcSize=14;strokeWidth=2;shadow=0;glass=0;verticalAlign=top;align=left;spacingLeft=10;" parent="1" vertex="1">
          <mxGeometry x="530" y="600" width="170" height="120" as="geometry" />
        </mxCell>
        <mxCell id="eWLI98ym-naXwQQl-7Ps-7" value="&lt;h4&gt;&lt;span style=&quot;font-weight: 400;&quot;&gt;Virtual COM port&lt;/span&gt;&lt;/h4&gt;" style="rounded=0;whiteSpace=wrap;html=1;absoluteArcSize=1;arcSize=14;strokeWidth=2;shadow=0;glass=0;verticalAlign=middle;align=center;spacingLeft=10;" parent="1" vertex="1">
          <mxGeometry x="530" y="750" width="170" height="40" as="geometry" />
        </mxCell>
        <mxCell id="eWLI98ym-naXwQQl-7Ps-8" value="&lt;h4&gt;Application Board&lt;/h4&gt;" style="rounded=1;whiteSpace=wrap;html=1;absoluteArcSize=1;arcSize=14;strokeWidth=2;horizontal=1;verticalAlign=top;align=left;spacingLeft=10;" parent="1" vertex="1">
          <mxGeometry x="60" y="570" width="300" height="230" as="geometry" />
        </mxCell>
        <mxCell id="eWLI98ym-naXwQQl-7Ps-9" value="&lt;b&gt;&lt;font color=&quot;#808080&quot;&gt;firmware.fwu2&lt;/font&gt;&lt;/b&gt;" style="rounded=1;whiteSpace=wrap;html=1;absoluteArcSize=1;arcSize=14;strokeWidth=2;verticalAlign=top;strokeColor=#999999;" parent="1" vertex="1">
          <mxGeometry x="70" y="630" width="95" height="160" as="geometry" />
        </mxCell>
        <mxCell id="eWLI98ym-naXwQQl-7Ps-10" value="Shuttle board" style="rounded=1;whiteSpace=wrap;html=1;absoluteArcSize=1;arcSize=14;strokeWidth=2;" parent="1" vertex="1">
          <mxGeometry x="70" y="550" width="120" height="20" as="geometry" />
        </mxCell>
        <mxCell id="eWLI98ym-naXwQQl-7Ps-11" value="Sensor" style="rounded=1;whiteSpace=wrap;html=1;absoluteArcSize=1;arcSize=14;strokeWidth=2;" parent="1" vertex="1">
          <mxGeometry x="75" y="530" width="80" height="20" as="geometry" />
        </mxCell>
        <mxCell id="eWLI98ym-naXwQQl-7Ps-12" value="&lt;h4&gt;example.bin&lt;/h4&gt;" style="rounded=1;whiteSpace=wrap;html=1;absoluteArcSize=1;arcSize=14;strokeWidth=2;horizontal=1;verticalAlign=top;align=left;spacingLeft=10;" parent="1" vertex="1">
          <mxGeometry x="190" y="630" width="155" height="160" as="geometry" />
        </mxCell>
        <mxCell id="eWLI98ym-naXwQQl-7Ps-17" value="SensorAPI" style="rounded=0;whiteSpace=wrap;html=1;absoluteArcSize=1;arcSize=14;strokeWidth=2;shadow=0;glass=0;verticalAlign=top;align=left;spacingLeft=10;spacing=2;spacingTop=0;" parent="1" vertex="1">
          <mxGeometry x="235" y="685" width="110" height="30" as="geometry" />
        </mxCell>
        <mxCell id="eWLI98ym-naXwQQl-7Ps-18" value="COINES API" style="rounded=0;whiteSpace=wrap;html=1;absoluteArcSize=1;arcSize=14;strokeWidth=2;shadow=0;glass=0;verticalAlign=top;align=left;spacingLeft=10;spacing=2;spacingTop=0;" parent="1" vertex="1">
          <mxGeometry x="190" y="715" width="155" height="30" as="geometry" />
        </mxCell>
        <mxCell id="eWLI98ym-naXwQQl-7Ps-21" style="edgeStyle=orthogonalEdgeStyle;rounded=0;orthogonalLoop=1;jettySize=auto;html=1;entryX=0;entryY=0.5;entryDx=0;entryDy=0;curved=1;" parent="1" source="eWLI98ym-naXwQQl-7Ps-19" target="eWLI98ym-naXwQQl-7Ps-7" edge="1">
          <mxGeometry relative="1" as="geometry" />
        </mxCell>
        <mxCell id="eWLI98ym-naXwQQl-7Ps-22" value="&lt;font style=&quot;font-size: 15px;&quot;&gt;USB&lt;/font&gt;" style="edgeLabel;html=1;align=center;verticalAlign=middle;resizable=0;points=[];" parent="eWLI98ym-naXwQQl-7Ps-21" vertex="1" connectable="0">
          <mxGeometry x="-0.2498" y="-4" relative="1" as="geometry">
            <mxPoint x="12" y="-4" as="offset" />
          </mxGeometry>
        </mxCell>
        <mxCell id="eWLI98ym-naXwQQl-7Ps-19" value="MCU BSP" style="rounded=0;whiteSpace=wrap;html=1;absoluteArcSize=1;arcSize=14;strokeWidth=2;shadow=0;glass=0;verticalAlign=top;align=left;spacingLeft=10;spacing=2;spacingTop=0;" parent="1" vertex="1">
          <mxGeometry x="190" y="745" width="155" height="30" as="geometry" />
        </mxCell>
      </root>
    </mxGraphModel>
  </diagram>
</mxfile>
